# xmcd CD database file generated by OrangeCD 5.2
#
# Track frame offsets:
#	183
#	10738
#	23875
#	37975
#	49418
#	62050
#	73340
#	85498
#	95875
#	109275
#	123318
#	138293
#	150305
#	160858
#	172080
#	187555
#	197485
#	216390
#	226743
#	236723
#
# Disc length: 3333 seconds
#
# Revision: 1
# Processed by: cddbd v1.5.1PL2 Copyright (c) Steve Scherf et al.
# Submitted via: OrangeCD 5.2
#
DISCID=120d0314
DTITLE=Various Artist - Country Living
DYEAR=1900
DGENRE=Country
TTITLE0=Wanda Jackson - It's Only Make Believe
TTITLE1=Faron Young - It's Four In The Morning
TTITLE2=Barbara Fairchild - Teddy Bear Songs
TTITLE3=Kitty Wells - Heartbreak USA
TTITLE4=Porter Wagoner - The Carroll County Accident
TTITLE5=Skeeter Davis - My Last Date With You
TTITLE6=Hank Thompson - The Wild Side Of Life
TTITLE7=Connie Smith - Once A Day
TTITLE8=Margo Smith - Don't Break The Heart That Loves You
TTITLE9=Billie Jo Spears - Mr. Walker It's All Over
TTITLE10=Harper Valley PTA - Jeannie C Riley
TTITLE11=Del Reeves - Girl On The Billboard
TTITLE12=Jimmy Newman - D J For A Day
TTITLE13=Don Gibson - Oh Lonesome Me
TTITLE14=Melba Montgomery - No Charge
TTITLE15=Ned Miller - From A Jack To A King
TTITLE16=Wink Martindale - Deck Of Cards
TTITLE17=Warner Mack - The Bridge Washed Out
TTITLE18=Hank Locklin - Please Help Me I'm Falling in LoveWith You
TTITLE19=Lyn Anderson - Rose Gaden
EXTD=
EXTT0=
EXTT1=
EXTT2=
EXTT3=
EXTT4=
EXTT5=
EXTT6=
EXTT7=
EXTT8=
EXTT9=
EXTT10=
EXTT11=
EXTT12=
EXTT13=
EXTT14=
EXTT15=
EXTT16=
EXTT17=
EXTT18=
EXTT19=
PLAYORDER=
